<mxfile host="app.diagrams.net" modified="2023-09-12T14:02:08.327Z" agent="Mozilla/5.0 (Macintosh; Intel Mac OS X 10.15; rv:109.0) Gecko/20100101 Firefox/117.0" etag="IGcQrsvA9p2GU66T_FTn" version="21.7.4" type="github">
  <diagram name="Página-1" id="HHZkWnQ3QFmK1URnwjJ-">
    <mxGraphModel dx="1434" dy="684" grid="1" gridSize="10" guides="1" tooltips="1" connect="1" arrows="1" fold="1" page="1" pageScale="1" pageWidth="827" pageHeight="1169" math="0" shadow="0">
      <root>
        <mxCell id="0" />
        <mxCell id="1" parent="0" />
        <mxCell id="uDRIb2TbiKP7ugC6pILz-1" value="Usuário" style="rounded=0;whiteSpace=wrap;html=1;" parent="1" vertex="1">
          <mxGeometry x="124" y="270" width="120" height="60" as="geometry" />
        </mxCell>
        <mxCell id="uDRIb2TbiKP7ugC6pILz-2" value="Aluga" style="shape=rhombus;perimeter=rhombusPerimeter;whiteSpace=wrap;html=1;align=center;" parent="1" vertex="1">
          <mxGeometry x="354" y="270" width="120" height="60" as="geometry" />
        </mxCell>
        <mxCell id="uDRIb2TbiKP7ugC6pILz-3" value="Livro" style="rounded=0;whiteSpace=wrap;html=1;" parent="1" vertex="1">
          <mxGeometry x="584" y="270" width="120" height="60" as="geometry" />
        </mxCell>
        <mxCell id="fJkEfCYjG3d2AQGqQygR-1" value="" style="endArrow=none;html=1;rounded=0;exitX=1;exitY=0.5;exitDx=0;exitDy=0;entryX=0;entryY=0.5;entryDx=0;entryDy=0;" edge="1" parent="1" source="uDRIb2TbiKP7ugC6pILz-1" target="uDRIb2TbiKP7ugC6pILz-2">
          <mxGeometry width="50" height="50" relative="1" as="geometry">
            <mxPoint x="390" y="380" as="sourcePoint" />
            <mxPoint x="440" y="330" as="targetPoint" />
          </mxGeometry>
        </mxCell>
        <mxCell id="fJkEfCYjG3d2AQGqQygR-2" value="" style="endArrow=none;html=1;rounded=0;entryX=0;entryY=0.5;entryDx=0;entryDy=0;exitX=1;exitY=0.5;exitDx=0;exitDy=0;" edge="1" parent="1" source="uDRIb2TbiKP7ugC6pILz-2" target="uDRIb2TbiKP7ugC6pILz-3">
          <mxGeometry width="50" height="50" relative="1" as="geometry">
            <mxPoint x="390" y="380" as="sourcePoint" />
            <mxPoint x="440" y="330" as="targetPoint" />
          </mxGeometry>
        </mxCell>
      </root>
    </mxGraphModel>
  </diagram>
</mxfile>
